# xmcd
# 
# Track frame offsets:
#     150
#     14390
#     35842
#     49463
#     59355
#     82604
#     97951
#     112861
#     148613
#     164605
# 
# Disc length: 2340
# 
# Revision: 0
# Processed by: cddbd v1.5.2PL0 Copyright (c) Steve Scherf et al.
# Submitted via: fre:ac v1.0.31
# 
DISCID=7e09220a
DTITLE=明珠姐妹 - 电影881全新CD专辑
DYEAR=0
DGENRE=
TTITLE0=野花唔通找
TTITLE1=十二莲花
TTITLE2=卖什货
TTITLE3=望春风
TTITLE4=一人一半感情袜散
TTITLE5=3号妈咪
TTITLE6=士叻坡美食街
TTITLE7=雪梅思君
TTITLE8=浪子送亲娘
TTITLE9=最后一口气
EXTD=
EXTT0=
EXTT1=
EXTT2=
EXTT3=
EXTT4=
EXTT5=
EXTT6=
EXTT7=
EXTT8=
EXTT9=
PLAYORDER=
